<mxfile host="app.diagrams.net" modified="2024-02-09T16:36:36.998Z" agent="Mozilla/5.0 (Windows NT 10.0; Win64; x64) AppleWebKit/537.36 (KHTML, like Gecko) Chrome/120.0.0.0 Safari/537.36 OPR/106.0.0.0" etag="X8b5RwHY6qGBI1QH2f5_" version="23.1.2" type="github">
  <diagram id="C5RBs43oDa-KdzZeNtuy" name="Page-1">
    <mxGraphModel dx="1633" dy="804" grid="1" gridSize="10" guides="1" tooltips="1" connect="1" arrows="1" fold="1" page="1" pageScale="1" pageWidth="827" pageHeight="1169" math="0" shadow="0">
      <root>
        <mxCell id="WIyWlLk6GJQsqaUBKTNV-0" />
        <mxCell id="WIyWlLk6GJQsqaUBKTNV-1" parent="WIyWlLk6GJQsqaUBKTNV-0" />
        <mxCell id="5X8GqOU6gWRwumbKLCuz-8" style="edgeStyle=orthogonalEdgeStyle;rounded=0;orthogonalLoop=1;jettySize=auto;html=1;entryX=0.5;entryY=0;entryDx=0;entryDy=0;" edge="1" parent="WIyWlLk6GJQsqaUBKTNV-1" source="5X8GqOU6gWRwumbKLCuz-1" target="5X8GqOU6gWRwumbKLCuz-7">
          <mxGeometry relative="1" as="geometry" />
        </mxCell>
        <mxCell id="5X8GqOU6gWRwumbKLCuz-1" value="/login?username=x&amp;amp;password=y" style="rounded=1;whiteSpace=wrap;html=1;" vertex="1" parent="WIyWlLk6GJQsqaUBKTNV-1">
          <mxGeometry x="180" y="200" width="240" height="40" as="geometry" />
        </mxCell>
        <mxCell id="5X8GqOU6gWRwumbKLCuz-3" style="edgeStyle=orthogonalEdgeStyle;rounded=0;orthogonalLoop=1;jettySize=auto;html=1;entryX=0;entryY=0.5;entryDx=0;entryDy=0;" edge="1" parent="WIyWlLk6GJQsqaUBKTNV-1" source="5X8GqOU6gWRwumbKLCuz-2" target="5X8GqOU6gWRwumbKLCuz-1">
          <mxGeometry relative="1" as="geometry" />
        </mxCell>
        <mxCell id="5X8GqOU6gWRwumbKLCuz-2" value="Actor" style="shape=umlActor;verticalLabelPosition=bottom;verticalAlign=top;html=1;outlineConnect=0;" vertex="1" parent="WIyWlLk6GJQsqaUBKTNV-1">
          <mxGeometry x="60" y="190" width="30" height="60" as="geometry" />
        </mxCell>
        <mxCell id="5X8GqOU6gWRwumbKLCuz-10" style="edgeStyle=orthogonalEdgeStyle;rounded=0;orthogonalLoop=1;jettySize=auto;html=1;entryX=1;entryY=0.5;entryDx=0;entryDy=0;" edge="1" parent="WIyWlLk6GJQsqaUBKTNV-1" source="5X8GqOU6gWRwumbKLCuz-4" target="5X8GqOU6gWRwumbKLCuz-7">
          <mxGeometry relative="1" as="geometry">
            <mxPoint x="370" y="330" as="targetPoint" />
          </mxGeometry>
        </mxCell>
        <mxCell id="5X8GqOU6gWRwumbKLCuz-4" value="user db" style="shape=cylinder3;whiteSpace=wrap;html=1;boundedLbl=1;backgroundOutline=1;size=15;" vertex="1" parent="WIyWlLk6GJQsqaUBKTNV-1">
          <mxGeometry x="450" y="290" width="60" height="80" as="geometry" />
        </mxCell>
        <mxCell id="5X8GqOU6gWRwumbKLCuz-14" style="edgeStyle=orthogonalEdgeStyle;rounded=0;orthogonalLoop=1;jettySize=auto;html=1;entryX=0.5;entryY=0;entryDx=0;entryDy=0;" edge="1" parent="WIyWlLk6GJQsqaUBKTNV-1" source="5X8GqOU6gWRwumbKLCuz-7" target="5X8GqOU6gWRwumbKLCuz-13">
          <mxGeometry relative="1" as="geometry" />
        </mxCell>
        <mxCell id="5X8GqOU6gWRwumbKLCuz-15" style="edgeStyle=orthogonalEdgeStyle;rounded=0;orthogonalLoop=1;jettySize=auto;html=1;entryX=0.5;entryY=0;entryDx=0;entryDy=0;" edge="1" parent="WIyWlLk6GJQsqaUBKTNV-1" source="5X8GqOU6gWRwumbKLCuz-7" target="5X8GqOU6gWRwumbKLCuz-12">
          <mxGeometry relative="1" as="geometry" />
        </mxCell>
        <mxCell id="5X8GqOU6gWRwumbKLCuz-7" value="Get user from db by username" style="rounded=1;whiteSpace=wrap;html=1;" vertex="1" parent="WIyWlLk6GJQsqaUBKTNV-1">
          <mxGeometry x="240" y="300" width="120" height="60" as="geometry" />
        </mxCell>
        <mxCell id="5X8GqOU6gWRwumbKLCuz-19" value="" style="edgeStyle=orthogonalEdgeStyle;rounded=0;orthogonalLoop=1;jettySize=auto;html=1;" edge="1" parent="WIyWlLk6GJQsqaUBKTNV-1" source="5X8GqOU6gWRwumbKLCuz-12" target="5X8GqOU6gWRwumbKLCuz-18">
          <mxGeometry relative="1" as="geometry" />
        </mxCell>
        <mxCell id="5X8GqOU6gWRwumbKLCuz-12" value="user is found" style="rounded=1;whiteSpace=wrap;html=1;" vertex="1" parent="WIyWlLk6GJQsqaUBKTNV-1">
          <mxGeometry x="120" y="440" width="120" height="60" as="geometry" />
        </mxCell>
        <mxCell id="5X8GqOU6gWRwumbKLCuz-17" style="edgeStyle=orthogonalEdgeStyle;rounded=0;orthogonalLoop=1;jettySize=auto;html=1;" edge="1" parent="WIyWlLk6GJQsqaUBKTNV-1" source="5X8GqOU6gWRwumbKLCuz-13" target="5X8GqOU6gWRwumbKLCuz-16">
          <mxGeometry relative="1" as="geometry" />
        </mxCell>
        <mxCell id="5X8GqOU6gWRwumbKLCuz-13" value="user is not found" style="rounded=1;whiteSpace=wrap;html=1;" vertex="1" parent="WIyWlLk6GJQsqaUBKTNV-1">
          <mxGeometry x="360" y="440" width="120" height="60" as="geometry" />
        </mxCell>
        <mxCell id="5X8GqOU6gWRwumbKLCuz-16" value="Return 404" style="rounded=1;whiteSpace=wrap;html=1;" vertex="1" parent="WIyWlLk6GJQsqaUBKTNV-1">
          <mxGeometry x="360" y="540" width="120" height="60" as="geometry" />
        </mxCell>
        <mxCell id="5X8GqOU6gWRwumbKLCuz-23" style="edgeStyle=orthogonalEdgeStyle;rounded=0;orthogonalLoop=1;jettySize=auto;html=1;" edge="1" parent="WIyWlLk6GJQsqaUBKTNV-1" source="5X8GqOU6gWRwumbKLCuz-18" target="5X8GqOU6gWRwumbKLCuz-20">
          <mxGeometry relative="1" as="geometry" />
        </mxCell>
        <mxCell id="5X8GqOU6gWRwumbKLCuz-24" style="edgeStyle=orthogonalEdgeStyle;rounded=0;orthogonalLoop=1;jettySize=auto;html=1;entryX=0.5;entryY=0;entryDx=0;entryDy=0;" edge="1" parent="WIyWlLk6GJQsqaUBKTNV-1" source="5X8GqOU6gWRwumbKLCuz-18" target="5X8GqOU6gWRwumbKLCuz-22">
          <mxGeometry relative="1" as="geometry" />
        </mxCell>
        <mxCell id="5X8GqOU6gWRwumbKLCuz-18" value="Hash given password &amp;amp; compare width db" style="whiteSpace=wrap;html=1;rounded=1;" vertex="1" parent="WIyWlLk6GJQsqaUBKTNV-1">
          <mxGeometry x="120" y="540" width="120" height="60" as="geometry" />
        </mxCell>
        <mxCell id="5X8GqOU6gWRwumbKLCuz-26" style="edgeStyle=orthogonalEdgeStyle;rounded=0;orthogonalLoop=1;jettySize=auto;html=1;" edge="1" parent="WIyWlLk6GJQsqaUBKTNV-1" source="5X8GqOU6gWRwumbKLCuz-20" target="5X8GqOU6gWRwumbKLCuz-25">
          <mxGeometry relative="1" as="geometry" />
        </mxCell>
        <mxCell id="5X8GqOU6gWRwumbKLCuz-20" value="doesnt match" style="rounded=1;whiteSpace=wrap;html=1;" vertex="1" parent="WIyWlLk6GJQsqaUBKTNV-1">
          <mxGeometry x="240" y="640" width="120" height="60" as="geometry" />
        </mxCell>
        <mxCell id="5X8GqOU6gWRwumbKLCuz-28" style="edgeStyle=orthogonalEdgeStyle;rounded=0;orthogonalLoop=1;jettySize=auto;html=1;entryX=0.5;entryY=0;entryDx=0;entryDy=0;" edge="1" parent="WIyWlLk6GJQsqaUBKTNV-1" source="5X8GqOU6gWRwumbKLCuz-22" target="5X8GqOU6gWRwumbKLCuz-27">
          <mxGeometry relative="1" as="geometry" />
        </mxCell>
        <mxCell id="5X8GqOU6gWRwumbKLCuz-22" value="matches" style="rounded=1;whiteSpace=wrap;html=1;" vertex="1" parent="WIyWlLk6GJQsqaUBKTNV-1">
          <mxGeometry y="640" width="120" height="60" as="geometry" />
        </mxCell>
        <mxCell id="5X8GqOU6gWRwumbKLCuz-25" value="Return 401" style="rounded=1;whiteSpace=wrap;html=1;" vertex="1" parent="WIyWlLk6GJQsqaUBKTNV-1">
          <mxGeometry x="240" y="730" width="120" height="60" as="geometry" />
        </mxCell>
        <mxCell id="5X8GqOU6gWRwumbKLCuz-27" value="return 200 and a session cookie" style="rounded=1;whiteSpace=wrap;html=1;" vertex="1" parent="WIyWlLk6GJQsqaUBKTNV-1">
          <mxGeometry y="730" width="120" height="60" as="geometry" />
        </mxCell>
      </root>
    </mxGraphModel>
  </diagram>
</mxfile>
